<?xml version="1.0" encoding="utf-8"?>
<!DOCTYPE svg PUBLIC "-//W3C//DTD SVG 1.1//EN" "http://www.w3.org/Graphics/SVG/1.1/DTD/svg11.dtd">
<svg version="1.1" id="Layer_1" xmlns="http://www.w3.org/2000/svg" xmlns:xlink="http://www.w3.org/1999/xlink" x="0px" y="0px"
	 viewBox="0 0 178.1 155.3" enable-background="new 0 0 178.1 155.3" xml:space="preserve">
<g>
	<polygon fill-rule="evenodd" clip-rule="evenodd" fill="#4D1979" points="1,0 1,114.3 89.3,154.2 177.1,114.3 177.1,0 	"/>
	<g>
		<polygon fill="#FFFFFF" points="89.3,155.3 0,115 0,0 2,0 2,113.7 89.3,153.1 176.1,113.7 176.1,0 178.1,0 178.1,115 177.5,115.2
					"/>
	</g>
</g>
<g>
	<path fill="#FDFDFE" d="M137.6,77.9c1,0,1.8,0.8,1.8,1.8c0,1-0.8,1.8-1.8,1.8c-1,0-1.8-0.8-1.8-1.8
		C135.9,78.7,136.7,77.9,137.6,77.9z M137.6,81.8c1.2,0,2.1-0.9,2.1-2.1s-0.9-2.1-2.1-2.1c-1.2,0-2.1,0.9-2.1,2.1
		S136.4,81.8,137.6,81.8z M138,79.8c0.3,0,0.6-0.2,0.6-0.6c0-0.5-0.4-0.6-0.8-0.6h-1v2.4h0.3v-1.1h0.4l0.6,1.1h0.4L138,79.8z
		 M137.7,78.9c0.3,0,0.5,0,0.5,0.3c0,0.3-0.4,0.3-0.8,0.3h-0.4v-0.6H137.7z"/>
	<g>
		<g>
			<path fill="#FDFDFE" d="M67.9,33c-17.5,2.3-31.5,8.5-32.1,8.8l-0.3,0.1l-0.8,0.4v0.9v15.3v2.3l2.1-1l0.7-0.3
				c0.9-0.4,3.4-1.6,7-2.9l0.3-0.1l1-0.3v-1V50c0.5-0.2,1.1-0.4,1.6-0.6v21c-1.2,0.5-2.4,1-3.4,1.5L43.5,72l-0.9,0.4v0.9v9.3V85
				l2.1-1l0.7-0.3c5.2-2.5,10.5-4.6,15.9-6.4l0.3-0.1l1-0.3v-1.1v-8.6v-1.9l-1.9,0.6l-0.6,0.2c-0.7,0.2-1.4,0.4-2.2,0.6V46.2
				c0.6-0.1,1.1-0.3,1.6-0.4v4.1v1.8l1.8-0.4l0.6-0.1c2.2-0.5,4.4-0.9,6.3-1.3l0.4-0.1l1.2-0.2v-1.2v-14v-1.6L68.4,33L67.9,33z"/>
			<path fill="#FDFDFE" d="M96.2,32.6l-0.4-0.4l-0.6,0l-0.2,0c-2-0.2-4.3-0.3-6.7-0.3c-3.4,0-6,0.2-6.6,0.3l-0.2,0l-0.6,0l-0.4,0.4
				l-8,8.3l-0.4,0.4v0.6v22.8v0.6l0.4,0.4l7.6,8l0.5,0.5l0.7-0.1l0.2,0c0.3,0,3-0.2,6.6-0.2c2.4,0,4.5,0.1,6.4,0.3l0.2,0l0.7,0.1
				l0.5-0.5l7.9-8.1l0.4-0.4v-0.6v-6.5v-1.3l-1.3-0.1l-8-0.9l-1.6-0.2v1.6v3.2c-0.6,0.6-1.6,1.6-2.2,2.2c-1,0-1.9-0.1-2.9-0.1
				c-1.3,0-2.5,0-3.4,0.1c-0.5-0.5-1.3-1.3-1.7-1.8V45.8c0.2-0.3,0.6-0.6,0.9-1c0.6-0.6,1.3-1.3,1.7-1.8c0.8,0,1.7,0,2.5,0
				c0.8,0,1.6,0,2.3,0c0.7,0.7,2.1,2.1,2.8,2.8v2.8v1.3l1.3,0.1l8,0.8l1.6,0.2v-1.6v-7.5v-0.6l-0.4-0.4L96.2,32.6z"/>
			<path fill="#FDFDFE" d="M143.8,43.4l-0.3-0.1c-4-2-8.7-3.8-14.1-5.4l-0.7-0.2l-1.8-0.5V39v8.7v1l1,0.3c0.6,0.2,1.3,0.4,1.9,0.6
				v18.5c-0.6,0.5-1.5,1.3-2.1,1.8c-1.3-0.5-3.6-1.3-4.6-1.7c-0.6-0.9-1.8-3.1-2.3-3.9V47c0.9,0.2,1.7,0.4,1.8,0.5l1.8,0.5v-1.9
				v-8.5v-1.2l-1.1-0.3l-0.4-0.1c-6.6-1.6-12.2-2.5-14.2-2.8l-0.6-0.1l-1.7-0.3v1.7V43v1.3l1.3,0.2l0.4,0.1l0,0l0,0
				c0.3,0,0.7,0.1,1.4,0.2v22V67l0.2,0.3l6,9.9l0.3,0.5l0.6,0.2l0.2,0.1c1,0.3,6.1,1.8,11.4,4.4l0.3,0.2l0.9,0.4l0.7-0.6l10.1-8.7
				l0.5-0.4v-0.7V54.1c0.4,0.2,0.7,0.4,1.1,0.6l0,0l0,0l0.7,0.4l2.1,1v-2.3v-9.1v-0.9L143.8,43.4z"/>
		</g>
	</g>
</g>
</svg>
